{"title":"Sonali Cable (2014) - 1CD - DVDSCR-Rip - Hindi - x264 - MP3 (Stu","uid":11237518,"size":734211783,"categoryP":"video","categoryS":"movies","magnet":"?xt=urn:btih:205f72ecea53d2a1bf1b6d346919768439c08487&amp;dn=Sonali+Cable+%282014%29+-+1CD+-+DVDSCR-Rip+-+Hindi+-+x264+-+MP3+%28Stu&amp;tr=udp%3A%2F%2Ftracker.openbittorrent.com%3A80&amp;tr=udp%3A%2F%2Fopen.demonii.com%3A1337&amp;tr=udp%3A%2F%2Ftracker.coppersurfer.tk%3A6969&amp;tr=udp%3A%2F%2Fexodus.desync.com%3A6969","seeders":13,"leechers":7,"uploader":"inovai","files":3,"time":1413613681,"description":"Sonali Cable (2014) - 1CD - DVDSCR-Rip - Hindi - x264 - MP3 (Studio Audio) - Mafiaking - Team TellyTNT ExClusive\n\nCover:\n &lt;a href=&quot;\nhttp://forum.primetimeshow.in/viewtopic.php?f=7&amp;t=782&quot; rel=&quot;nofollow&quot; target=&quot;_NEW&quot;&gt;\nhttp://forum.primetimeshow.in/viewtopic.php?f=7&amp;t=782&lt;/a&gt;\n\n\nRatings: 7.0/10\n\nGENRE: Drama\n\nScreenshots:\n &lt;a href=&quot;\nhttp://m.primetimeshow.in/share-2C1B_5441EBE2.html&quot; rel=&quot;nofollow&quot; target=&quot;_NEW&quot;&gt;\nhttp://m.primetimeshow.in/share-2C1B_5441EBE2.html&lt;/a&gt;\n &lt;a href=&quot;\nhttp://m.primetimeshow.in/share-6D5F_5441EBE2.html&quot; rel=&quot;nofollow&quot; target=&quot;_NEW&quot;&gt;\nhttp://m.primetimeshow.in/share-6D5F_5441EBE2.html&lt;/a&gt;\n &lt;a href=&quot;\nhttp://m.primetimeshow.in/share-7033_5441EBE2.html&quot; rel=&quot;nofollow&quot; target=&quot;_NEW&quot;&gt;\nhttp://m.primetimeshow.in/share-7033_5441EBE2.html&lt;/a&gt;\n &lt;a href=&quot;\nhttp://m.primetimeshow.in/share-6143_5441EBE2.html&quot; rel=&quot;nofollow&quot; target=&quot;_NEW&quot;&gt;\nhttp://m.primetimeshow.in/share-6143_5441EBE2.html&lt;/a&gt;\n &lt;a href=&quot;\nhttp://m.primetimeshow.in/share-3634_5441EBE2.html&quot; rel=&quot;nofollow&quot; target=&quot;_NEW&quot;&gt;\nhttp://m.primetimeshow.in/share-3634_5441EBE2.html&lt;/a&gt;\n\n\nGeneral\nUnique ID : 232453106196711726765797403134952985274 (0xAEE0D6FC6991FFD6BB9BD0BA003BD2BA)\nComplete name : Sonali Cable (2014) - 1CD - DVDSCR-Rip - Hindi - x264 - MP3 (Studio Audio) - Mafiaking - Team TellyTNT ExClusive.mkv\nFormat : Matroska\nFormat version : Version 4 / Version 2\nFile size : 694 MiB\nDuration : 2h 4mn\nOverall bit rate : 783 Kbps\nMovie name : Sonali Cable (2014) - 1CD - DVDSCR-Rip - Hindi - x264 - MP3 (Studio Audio) - Mafiaking - Team TellyTNT ExClusive\nEncoded date : UTC 2014-10-17 12:49:49\nWriting application : mkvmerge v7.0.0 ('Where We Going') 64bit built on Jun 9 2014 15:16:27\nWriting library : libebml v1.3.0 + libmatroska v1.4.1\n\n\nVideo\nID : 1\nFormat : AVC\nFormat/Info : Advanced Video Codec\nFormat profile : &lt;a class=&quot;__cf_email__&quot; href=&quot;/cdn-cgi/l/email-protection&quot; data-cfemail=&quot;94dcfdf3fcd4d8a0baa5&quot;&gt;[email&amp;#160;protected]&lt;/a&gt;&lt;script cf-hash='f9e31' type=&quot;text/javascript&quot;&gt;\n/* &lt;![CDATA[ */!function(){try{var t=&quot;currentScript&quot;in document?document.currentScript:function(){for(var t=document.getElementsByTagName(&quot;script&quot;),e=t.length;e--;)if(t[e].getAttribute(&quot;cf-hash&quot;))return t[e]}();if(t&amp;&amp;t.previousSibling){var e,r,n,i,c=t.previousSibling,a=c.getAttribute(&quot;data-cfemail&quot;);if(a){for(e=&quot;&quot;,r=parseInt(a.substr(0,2),16),n=2;a.length-n;n+=2)i=parseInt(a.substr(n,2),16)^r,e+=String.fromCharCode(i);e=document.createTextNode(e),c.parentNode.replaceChild(e,c)}}}catch(u){}}();/* ]]&gt; */&lt;/script&gt;\nFormat settings, CABAC : Yes\nFormat settings, ReFrames : 4 frames\nCodec ID : V_MPEG4/ISO/AVC\nDuration : 2h 4mn\nBit rate : 701 Kbps\nWidth : 640 pixels\nHeight : 272 pixels\nDisplay aspect ratio : 2.35:1\nFrame rate mode : Constant\nFrame rate : 25.000 fps\nColor space : YUV\nChroma subsampling : 4:2:0\nBit depth : 8 bits\nScan type : Progressive\nBits/(Pixel*Frame) : 0.161\nStream size : 610 MiB (88%)\nTitle : Mafiaking\nWriting library : x264 core 142 r2431 ac76440\nLanguage : Hindi\nDefault : Yes\nForced : No\n\n\nAudio\nID : 2\nFormat : MPEG Audio\nFormat version : Version 1\nFormat profile : Layer 3\nMode : Joint stereo\nMode extension : MS Stereo\nCodec ID : A_MPEG/L3\nCodec ID/Hint : MP3\nDuration : 2h 4mn\nBit rate mode : Constant\nBit rate : 80.0 Kbps\nChannel(s) : 2 channels\nSampling rate : 32.0 KHz\nCompression mode : Lossy\nStream size : 71.0 MiB (10%)\nTitle : Mafiaking\nWriting library : LAME3.99r\nLanguage : Hindi\nDefault : Yes\nForced : No\n\nSAMPLE WITH IN TORRENT\n\nThanks to Mafiaking - Team TellyTNT!!\n\nSeed n Enjoy!!","torrent":{"xt":"urn:btih:205f72ecea53d2a1bf1b6d346919768439c08487","amp;dn":"Sonali+Cable+%282014%29+-+1CD+-+DVDSCR-Rip+-+Hindi+-+x264+-+MP3+%28Stu","amp;tr":["udp%3A%2F%2Ftracker.openbittorrent.com%3A80","udp%3A%2F%2Fopen.demonii.com%3A1337","udp%3A%2F%2Ftracker.coppersurfer.tk%3A6969","udp%3A%2F%2Fexodus.desync.com%3A6969"],"infoHash":"205f72ecea53d2a1bf1b6d346919768439c08487","infoHashBuffer":{"type":"Buffer","data":[32,95,114,236,234,83,210,161,191,27,109,52,105,25,118,132,57,192,132,135]},"announce":[],"urlList":[]}}